name rise36.2859peak64.2979fall75.1499.mot
datacolumns 19
datarows 29
range 15.20494400000000 15.25161300000000
endheader
time	ground_force1_vx	ground_force1_vy	ground_force1_vz	ground_force1_px	ground_force1_py	ground_force1_pz	ground_force2_vx	ground_force2_vy	ground_force2_vz	ground_force2_px	ground_force2_py	ground_force2_pz	ground_torque1_x	ground_torque1_y	ground_torque1_z	ground_torque2_x	ground_torque2_y	ground_torque2_z	
15.20494400000000	-46.57608400000000	823.69041900000002	56.57725000000000	0.22602400000000	0.00000000000000	0.09213000000000	-2.54818300000000	27.86286200000000	4.53700400000000	0.43786200000000	0.00000000000000	-0.09673800000000	0.00000000000000	32.82065000000000	0.00000000000000	0.00000000000000	4.03379100000000	0.00000000000000	
15.20660900000000	-46.54205900000000	820.93021499999998	56.45710900000000	0.22541500000000	0.00000000000000	0.09211800000000	-3.00880200000000	34.13257900000000	5.40985000000000	0.43971200000000	0.00000000000000	-0.09730100000000	0.00000000000000	32.63882200000000	0.00000000000000	0.00000000000000	4.81485900000000	0.00000000000000	
15.20827400000000	-46.51423400000000	818.01483800000005	56.31237000000000	0.22480400000000	0.00000000000000	0.09210300000000	-3.44798300000000	40.61899500000000	6.26661900000000	0.44151600000000	0.00000000000000	-0.09781800000000	0.00000000000000	32.44938000000000	0.00000000000000	0.00000000000000	5.58432500000000	0.00000000000000	
15.20994900000000	-46.49351000000000	814.94517199999996	56.14256700000000	0.22419200000000	0.00000000000000	0.09208400000000	-3.84985000000000	47.19560400000000	7.08239900000000	0.44327700000000	0.00000000000000	-0.09829400000000	0.00000000000000	32.25243900000000	0.00000000000000	0.00000000000000	6.32032700000000	0.00000000000000	
15.21160800000000	-46.48074900000000	811.72221400000001	55.94728000000000	0.22357800000000	0.00000000000000	0.09206100000000	-4.20055100000000	53.74973200000000	7.83570200000000	0.44499800000000	0.00000000000000	-0.09873500000000	0.00000000000000	32.04812700000000	0.00000000000000	0.00000000000000	7.00402700000000	0.00000000000000	
15.21327800000000	-46.47676500000000	808.34706300000005	55.72613600000000	0.22296200000000	0.00000000000000	0.09203500000000	-4.48895500000000	60.18975200000000	8.50965500000000	0.44668000000000	0.00000000000000	-0.09914600000000	0.00000000000000	31.83657900000000	0.00000000000000	0.00000000000000	7.62070100000000	0.00000000000000	
15.21494100000000	-46.48232700000000	804.82091200000002	55.47881200000000	0.22234400000000	0.00000000000000	0.09200500000000	-4.70704700000000	66.44955200000000	9.09265400000000	0.44832600000000	0.00000000000000	-0.09953100000000	0.00000000000000	31.61794000000000	0.00000000000000	0.00000000000000	8.16032500000000	0.00000000000000	
15.21660500000000	-46.49814800000000	801.14503900000000	55.20503500000000	0.22172500000000	0.00000000000000	0.09197100000000	-4.85000400000000	72.49021200000000	9.57848100000000	0.44993600000000	0.00000000000000	-0.09989200000000	0.00000000000000	31.39236000000000	0.00000000000000	0.00000000000000	8.61770600000000	0.00000000000000	
15.21827900000000	-46.52488500000000	797.32079599999997	54.90458500000000	0.22110500000000	0.00000000000000	0.09193300000000	-4.91600500000000	78.29916799999999	9.96596700000000	0.45151400000000	0.00000000000000	-0.10023300000000	0.00000000000000	31.16000000000000	0.00000000000000	0.00000000000000	8.99218400000000	0.00000000000000	
15.21993900000000	-46.56313400000000	793.34960100000001	54.57729700000000	0.22048400000000	0.00000000000000	0.09189100000000	-4.90583700000000	83.88733900000000	10.25829800000000	0.45305900000000	0.00000000000000	-0.10055600000000	0.00000000000000	30.92102600000000	0.00000000000000	0.00000000000000	9.28701400000000	0.00000000000000	
15.22161200000000	-46.61342800000000	789.23292800000002	54.22305600000000	0.21986100000000	0.00000000000000	0.09184400000000	-4.82235400000000	89.28482400000000	10.46208400000000	0.45457400000000	0.00000000000000	-0.10086300000000	0.00000000000000	30.67561100000000	0.00000000000000	0.00000000000000	9.50853100000000	0.00000000000000	
15.22328000000000	-46.67623000000000	784.97230100000002	53.84180800000000	0.21923800000000	0.00000000000000	0.09179300000000	-4.66987400000000	94.53575499999999	10.58630700000000	0.45605900000000	0.00000000000000	-0.10115600000000	0.00000000000000	30.42393100000000	0.00000000000000	0.00000000000000	9.66520500000000	0.00000000000000	
15.22493800000000	-46.75193100000000	780.56928300000004	53.43355200000000	0.21861300000000	0.00000000000000	0.09173700000000	-4.45356600000000	99.69289800000000	10.64126800000000	0.45751600000000	0.00000000000000	-0.10143600000000	0.00000000000000	30.16616900000000	0.00000000000000	0.00000000000000	9.76667900000000	0.00000000000000	
15.22661100000000	-46.84084700000000	776.02546700000005	52.99834300000000	0.21798900000000	0.00000000000000	0.09167600000000	-4.17887400000000	104.81246299999999	10.63759600000000	0.45894500000000	0.00000000000000	-0.10170400000000	0.00000000000000	29.90251200000000	0.00000000000000	0.00000000000000	9.82288100000000	0.00000000000000	
15.22827400000000	-46.94321700000000	771.34247100000005	52.53629600000000	0.21736400000000	0.00000000000000	0.09161100000000	-3.85103600000000	109.94952400000000	10.58541400000000	0.46034800000000	0.00000000000000	-0.10196100000000	0.00000000000000	29.63314800000000	0.00000000000000	0.00000000000000	9.84325000000000	0.00000000000000	
15.22994400000000	-47.05919700000000	766.52192700000001	52.04758000000000	0.21673900000000	0.00000000000000	0.09154000000000	-3.47470200000000	115.15428600000000	10.49368100000000	0.46172400000000	0.00000000000000	-0.10220900000000	0.00000000000000	29.35827000000000	0.00000000000000	0.00000000000000	9.83614300000000	0.00000000000000	
15.23160600000000	-47.18886000000000	761.56547599999999	51.53242400000000	0.21611500000000	0.00000000000000	0.09146500000000	-3.05366600000000	120.46934899999999	10.36973900000000	0.46307500000000	0.00000000000000	-0.10244800000000	0.00000000000000	29.07807000000000	0.00000000000000	0.00000000000000	9.80841600000000	0.00000000000000	
15.23327700000000	-47.33219200000000	756.47475999999995	50.99111200000000	0.21549000000000	0.00000000000000	0.09138500000000	-2.59072800000000	125.92799300000000	10.21906500000000	0.46440000000000	0.00000000000000	-0.10267900000000	0.00000000000000	28.79274100000000	0.00000000000000	0.00000000000000	9.76518900000000	0.00000000000000	
15.23493900000000	-47.48909300000000	751.25141499999995	50.42398700000000	0.21486700000000	0.00000000000000	0.09129900000000	-2.08765000000000	131.55344299999999	10.04520100000000	0.46570100000000	0.00000000000000	-0.10290300000000	0.00000000000000	28.50247800000000	0.00000000000000	0.00000000000000	9.70979000000000	0.00000000000000	
15.23660500000000	-47.65936800000000	745.89706699999999	49.83144800000000	0.21424500000000	0.00000000000000	0.09120800000000	-1.54520900000000	137.35898100000000	9.84985200000000	0.46697800000000	0.00000000000000	-0.10311900000000	0.00000000000000	28.20747300000000	0.00000000000000	0.00000000000000	9.64383100000000	0.00000000000000	
15.23827200000000	-47.84273300000000	740.41332299999999	49.21394900000000	0.21362400000000	0.00000000000000	0.09111200000000	-0.96332600000000	143.34874400000001	9.63309400000000	0.46823100000000	0.00000000000000	-0.10332900000000	0.00000000000000	27.90791700000000	0.00000000000000	0.00000000000000	9.56740000000000	0.00000000000000	
15.23994100000000	-48.03881100000000	734.80177000000003	48.57200000000000	0.21300400000000	0.00000000000000	0.09101100000000	-0.34123500000000	149.51902699999999	9.39367300000000	0.46946000000000	0.00000000000000	-0.10353400000000	0.00000000000000	27.60399700000000	0.00000000000000	0.00000000000000	9.47933900000000	0.00000000000000	
15.24160500000000	-48.24713000000000	729.06396900000004	47.90616300000000	0.21238700000000	0.00000000000000	0.09090400000000	0.32231800000000	155.85989300000000	9.12934600000000	0.47066500000000	0.00000000000000	-0.10373200000000	0.00000000000000	27.29590000000000	0.00000000000000	0.00000000000000	9.37755000000000	0.00000000000000	
15.24327800000000	-48.46712200000000	723.20145200000002	47.21705800000000	0.21177100000000	0.00000000000000	0.09079200000000	1.02886600000000	162.35692100000000	8.83724200000000	0.47184600000000	0.00000000000000	-0.10392500000000	0.00000000000000	26.98380700000000	0.00000000000000	0.00000000000000	9.25932900000000	0.00000000000000	
15.24494000000000	-48.69812600000000	717.21571900000004	46.50535000000000	0.21115900000000	0.00000000000000	0.09067500000000	1.78002400000000	168.99292600000001	8.51419400000000	0.47300300000000	0.00000000000000	-0.10411300000000	0.00000000000000	26.66789600000000	0.00000000000000	0.00000000000000	9.12167500000000	0.00000000000000	
15.24660900000000	-48.93938600000000	711.10823900000003	45.77176100000000	0.21054900000000	0.00000000000000	0.09055200000000	2.57731400000000	175.74954600000001	8.15704500000000	0.47413700000000	0.00000000000000	-0.10429600000000	0.00000000000000	26.34833800000000	0.00000000000000	0.00000000000000	8.96156900000000	0.00000000000000	
15.24827500000000	-49.19005300000000	704.88044900000000	45.01705600000000	0.20994200000000	0.00000000000000	0.09042400000000	3.42202300000000	182.60858300000001	7.76289400000000	0.47524600000000	0.00000000000000	-0.10447500000000	0.00000000000000	26.02530000000000	0.00000000000000	0.00000000000000	8.77620700000000	0.00000000000000	
15.24994000000000	-49.44918500000000	698.53375500000004	44.24205100000000	0.20933900000000	0.00000000000000	0.09029000000000	4.31509100000000	189.55307400000001	7.32928800000000	0.47633200000000	0.00000000000000	-0.10464900000000	0.00000000000000	25.69894500000000	0.00000000000000	0.00000000000000	8.56317100000000	0.00000000000000	
15.25161300000000	-49.71574700000000	692.06953299999998	43.44760500000000	0.20874000000000	0.00000000000000	0.09015100000000	5.25703900000000	196.56803800000000	6.85434200000000	0.47739200000000	0.00000000000000	-0.10482000000000	0.00000000000000	25.36942700000000	0.00000000000000	0.00000000000000	8.32054900000000	0.00000000000000	
